# xmcd
#
# Track frame offsets: 
#        150
#        21931
#        35603
#        58342
#        70162
#        89527
#        98638
#        121147
#        132468
#        148640
#
# Disc length: 2188 seconds
#
# Revision: 0
# Processed by: cddbd v1.5.2PL0 Copyright (c) Steve Scherf et al.
# Submitted via: ExactAudioCopy v0.99pb5
#
DISCID=90088a0a
DTITLE=B.B. KING - BLUES KINGS-B.B. KING
DYEAR=2006
DGENRE=Blues
TTITLE0=The Thrill is Gone
TTITLE1=3 0'Clock Blues
TTITLE2=Everyday I Have The Blues
TTITLE3=Paying The Cost To Be The Boss
TTITLE4=Sweet Sixteen
TTITLE5=Woke Up This Morning (My Baby's Gone)
TTITLE6=You Done Lost Your Good Thing Now
TTITLE7=She's Dynamite
TTITLE8=It's My Own Fault
TTITLE9=How Blue Can You Get (Live)
EXTD=
EXTT0=
EXTT1=
EXTT2=
EXTT3=
EXTT4=
EXTT5=
EXTT6=
EXTT7=
EXTT8=
EXTT9=
PLAYORDER=
